<svg fill="none" height="97" viewBox="0 0 96 97" width="96" xmlns="http://www.w3.org/2000/svg"><path d="m39.4999 12.75-18 57.25c-2.4084 7.6602 1.4965 7.3584 3.75 6.2499l55.5-31.7499c-6.2-26.2-30.0833-32.0834-41.25-31.75z" fill="#fcbd42"/><path clip-rule="evenodd" d="m37.592 12.1501c.2554-.8123.9971-1.3738 1.8482-1.3992 11.6329-.3472 36.7425 5.7641 43.256 33.2886.2041.8625-.1838 1.7564-.9532 2.1965l-55.5 31.75c-.0361.0207-.0729.0403-.1103.0586-.7136.351-1.6139.6693-2.5593.7638-.9329.0932-2.1426-.0146-3.1739-.8159-1.0708-.832-1.5577-2.1032-1.6429-3.5072-.0835-1.3753.1977-3.0569.8354-5.0851zm-16.0921 57.8499 18-57.25c11.1667-.3333 35.05 5.55 41.25 31.75l-55.5 31.75c-2.2535 1.1084-6.1584 1.4103-3.75-6.25z" fill="#cc8026" fill-rule="evenodd"/><path d="m20.7433 87.75v-13.375c.65.8 2.7708 0 3.75.5v12.875c0 1.125-.6875 3.5-2.25 2.8125-1.25-.55-1.5209-2.1042-1.5-2.8125z" fill="#fcbd41"/><path d="m49.8058 66.0419v-13.375c.65.8 2.7708 2 3.75 2.5v10.875c0 1.125-.6875 3.5-2.25 2.8125-1.25-.55-1.5209-2.1042-1.5-2.8125z" fill="#fcbd41"/><path d="m26.4312 80.0625v-13.375c.9328.8 3.9761 2 5.3812 2.5v10.875c0 1.125-.9865 3.5-3.2287 2.8125-1.7937-.55-2.1823-2.1042-2.1525-2.8125z" fill="#fcbd41"/><path d="m80.6562 44.4688c-6.2-26.2001-30.427-32.3021-41.5937-31.9688 0 0-1.5427.25-2.5001 2.4375s.5624 3.75.5624 3.75c7.5417-1.375 25.5564 2.9562 36.6564 29.6563 1.425-.875 4.8438-3.073 6.875-3.875z" fill="#ffcd6c"/><path clip-rule="evenodd" d="m38.7426 10.5258c.0861-.014.173-.0223.2602-.0249 5.9145-.1766 15.1375 1.3378 23.7204 6.3022 8.6439 4.9996 16.6374 13.5055 19.8793 27.2051.2289.9672-.2872 1.9557-1.2117 2.3207-1.5672.6189-4.158 2.2274-5.8347 3.2684-.269.167-.5144.3194-.7283.4508-.4985.306-1.106.3786-1.6625.1984-.5565-.1801-1.0063-.5949-1.2308-1.135-10.8176-26.0208-28.0234-29.6283-34.451-28.4564-.6556.1195-1.3277-.0954-1.7924-.5731l1.4337-1.3945c7.3633-1.3425 24.7101 2.7545 35.8574 27.7989.2701.6068.5365 1.2258.7991 1.8573.192-.1179.4203-.2599.6766-.4192.3119-.1941.6653-.4138 1.0452-.6474 1.6229-.9976 3.729-2.246 5.1532-2.8084-6.2-26.2-30.4271-32.302-41.5938-31.9687zm.3199 1.9742s-1.5427.25-2.5001 2.4375.5624 3.75.5624 3.75c-1.4337 1.3945-1.4344 1.3938-1.4351 1.393l-.0014-.0014-.003-.0031-.0064-.0067-.0146-.0154c-.0104-.0111-.0224-.0239-.0357-.0386-.0266-.0292-.0587-.0656-.0953-.1088-.0729-.0863-.1644-.2016-.265-.344-.1991-.2821-.4449-.6873-.6458-1.1999-.4136-1.0551-.6246-2.5539.1077-4.227.6352-1.4513 1.5148-2.3581 2.3341-2.9027.4008-.2665.7702-.4351 1.063-.5408.1464-.0529.2742-.0902.378-.1164.052-.0131.0982-.0234.1378-.0316.0199-.0041.0382-.0076.0547-.0106l.0237-.0042.0108-.0019.0052-.0008.0026-.0004c.0012-.0002.0025-.0004.3224 1.9738z" fill="#cc8026" fill-rule="evenodd"/><path d="m81.1562 44.3125-7.4062 4.125c0-1.1979.4864-3.9053 2.875-5.125 2.9375-1.5 4.2083.5521 4.5312 1z" fill="#cc8026"/><path clip-rule="evenodd" d="m37.6249 16.375c0-.5523.4478-1 1-1 1.8676 0 6.0677.1919 10.7304 1.4156 4.6535 1.2212 9.8651 3.4958 13.6411 7.7315.3675.4122.3312 1.0443-.081 1.4119-.4123.3675-1.0444.3312-1.4119-.0811-3.4115-3.8268-8.1999-5.9584-12.6558-7.1278-4.4467-1.167-8.4653-1.3501-10.2228-1.3501-.5522 0-1-.4477-1-1z" fill="#ffdc98" fill-rule="evenodd"/><path clip-rule="evenodd" d="m38.2499 13.3082c.0024-.5523.4521-.9981 1.0043-.9957 4.9359.0212 15.6758 1.0045 24.6897 7.2401 9.3874 6.4941 14.8936 16.6806 17.1239 22.9891.184.5207-.0888 1.092-.6095 1.2761s-1.0921-.0888-1.2762-.6095c-2.1447-6.0665-7.4487-15.8351-16.3761-22.0109-8.5278-5.8994-18.7878-6.8644-23.5604-6.8849-.5522-.0024-.998-.452-.9957-1.0043z" fill="#faa036" fill-rule="evenodd"/><path clip-rule="evenodd" d="m28.2812 70.0625c.5523 0 1 .4477 1 1v8.5c0 .5523-.4477 1-1 1s-1-.4477-1-1v-8.5c0-.5523.4477-1 1-1z" fill="#ffce6e" fill-rule="evenodd"/><path clip-rule="evenodd" d="m51.3365 57.9828c.5523 0 1 .4477 1 1v6.5c0 .5523-.4477 1-1 1s-1-.4477-1-1v-6.5c0-.5523.4477-1 1-1z" fill="#ffce6e" fill-rule="evenodd"/><path clip-rule="evenodd" d="m22.3124 73.9977c.2762 0 .5.2238.5.5v10.6273c0 .2761-.2238.5-.5.5-.2761 0-.5-.2239-.5-.5v-10.6273c0-.2762.2239-.5.5-.5z" fill="#ffce6e" fill-rule="evenodd"/><g fill="#f6a60b"><path d="m51.4248 26.5415c-.2952.6431-1.1815.8674-1.9797.501-.7981-.3663-1.2059-1.1847-.9107-1.8278s1.1816-.8674 1.9797-.501c.7982.3663 1.2059 1.1847.9107 1.8278z"/><path d="m57.5137 31.2436c-.2952.6431-1.1816.8674-1.9797.5011-.7982-.3664-1.2059-1.1847-.9107-1.8278s1.1815-.8675 1.9797-.5011c.7981.3664 1.2058 1.1847.9107 1.8278z"/><path d="m51.2806 33.9133c-.2952.6431-1.1816.8674-1.9797.5011-.7982-.3664-1.2059-1.1847-.9107-1.8278s1.1815-.8675 1.9797-.5011c.7981.3664 1.2059 1.1847.9107 1.8278z"/><path d="m44.4056 30.5415c-.2952.6431-1.1816.8674-1.9797.501-.7982-.3663-1.2059-1.1847-.9107-1.8278s1.1815-.8674 1.9797-.501c.7981.3663 1.2059 1.1847.9107 1.8278z"/><path d="m46.4807 25.0339c-.4072.8871-1.6298 1.1966-2.7307.6912-1.101-.5054-1.6634-1.6342-1.2562-2.5212.4072-.8871 1.6298-1.1966 2.7307-.6912 1.101.5054 1.6634 1.6342 1.2562 2.5212z"/><path d="m52.3065 30.6314c-.2081.4534-.833.6116-1.3957.3533-.5628-.2583-.8502-.8353-.6421-1.2887s.833-.6116 1.3958-.3533c.5627.2583.8502.8353.642 1.2887z"/><path d="m58.4982 35.9493c-.2082.4534-.8331.6116-1.3958.3532-.5627-.2583-.8502-.8352-.6421-1.2886.2082-.4535.8331-.6116 1.3958-.3533s.8502.8353.6421 1.2887z"/><path d="m40.9628 25.4439c-.2082.4534-.8331.6116-1.3958.3533s-.8502-.8353-.6421-1.2887c.2082-.4534.8331-.6116 1.3958-.3533s.8502.8353.6421 1.2887z"/><path d="m54.316 27.7868c-.1469.3201-.588.4317-.9852.2494-.3971-.1823-.6-.5896-.4531-.9096s.5879-.4317.9851-.2494c.3972.1824.6001.5896.4532.9096z"/><path d="m49.1723 29.205c-.1469.3201-.588.4317-.9852.2494s-.6001-.5896-.4532-.9096c.147-.32.588-.4317.9852-.2493.3972.1823.6001.5895.4532.9095z"/><path d="m45.8328 28.0461c-.1469.32-.588.4317-.9852.2494-.3972-.1824-.6001-.5896-.4532-.9096.1469-.3201.588-.4317.9852-.2494s.6001.5896.4532.9096z"/><path d="m40.8585 22.5774c-.1469.32-.5879.4316-.9851.2493s-.6001-.5896-.4532-.9096.588-.4317.9852-.2493c.3972.1823.6001.5895.4531.9096z"/><path d="m46.952 31.6607c-.1469.3201-.588.4317-.9852.2494s-.6001-.5896-.4532-.9096.588-.4317.9852-.2494c.3972.1824.6001.5896.4532.9096z"/><path d="m54.808 33.3615c-.1469.3201-.588.4317-.9852.2494s-.6001-.5896-.4532-.9096.588-.4317.9852-.2494c.3972.1824.6001.5896.4532.9096z"/><path d="m44.6647 34.6175c-.1469.32-.5879.4317-.9851.2494-.3972-.1824-.6001-.5896-.4532-.9096.1469-.3201.588-.4317.9851-.2494.3972.1823.6001.5896.4532.9096z"/><path d="m40.0627 27.9c-.1469.32-.5879.4317-.9851.2493-.3972-.1823-.6001-.5895-.4532-.9096.1469-.32.588-.4316.9852-.2493.3971.1823.6.5896.4531.9096z"/><path d="m41.8437 34.2712c-.1469.32-.588.4317-.9851.2493-.3972-.1823-.6001-.5895-.4532-.9095.1469-.3201.5879-.4317.9851-.2494s.6001.5896.4532.9096z"/><path d="m47.0784 36.851c-.1469.3201-.5879.4317-.9851.2494s-.6001-.5896-.4532-.9096.588-.4317.9851-.2494c.3972.1824.6001.5896.4532.9096z"/><path d="m60.4468 33.1123c-.1469.32-.588.4316-.9852.2493s-.6001-.5895-.4532-.9096c.1469-.32.588-.4316.9852-.2493s.6001.5895.4532.9096z"/></g><path clip-rule="evenodd" d="m26.8645 53.0011c.6138.1491 1.2574.2284 1.9206.2284 4.2417 0 7.6802-3.244 7.6802-7.2456 0-3.1949-2.1919-5.9068-5.2344-6.8704z" fill="#a63d3d" fill-rule="evenodd"/><path clip-rule="evenodd" d="m28.5458 51.2717c.4324.1165.886.1799 1.3539.1829 2.9934.0193 5.4359-2.4399 5.4555-5.4928.0157-2.4373-1.5176-4.5162-3.6598-5.2652z" fill="#c73f3f" fill-rule="evenodd"/><path d="m32.3054 48.9999c0 .5229-.4384.9467-.9791.9467s-.9791-.4238-.9791-.9467c0-.5228.4384-.9467.9791-.9467s.9791.4239.9791.9467z" fill="#ffe5e5"/><path d="m31.9668 44.406c0 .342-.2867.6193-.6404.6193s-.6404-.2773-.6404-.6193.2867-.6193.6404-.6193.6404.2773.6404.6193z" fill="#ffe5e5"/><path d="m34.8124 45.1688c0 .342-.2867.6193-.6404.6193s-.6404-.2773-.6404-.6193.2867-.6192.6404-.6192.6404.2772.6404.6192z" fill="#ffe5e5"/><path d="m60.1808 40.1434c0 3.8071-3.2715 6.8934-7.307 6.8934-4.0356 0-7.307-3.0863-7.307-6.8934s3.2714-6.8934 7.307-6.8934c4.0355 0 7.307 3.0863 7.307 6.8934z" fill="#a63d3d"/><path d="m58.1213 40.2126c0 3.0197-2.5315 5.4676-5.6544 5.4676s-5.6545-2.4479-5.6545-5.4676c0-3.0196 2.5316-5.4675 5.6545-5.4675s5.6544 2.4479 5.6544 5.4675z" fill="#c73f3f"/><path d="m50.4424 41.2078c0 .5229-.4384.9467-.9791.9467s-.9791-.4238-.9791-.9467c0-.5228.4384-.9467.9791-.9467s.9791.4239.9791.9467z" fill="#ffe5e5"/><path d="m51.4663 36.7703c0 .5229-.4383.9467-.9791.9467-.5407 0-.979-.4238-.979-.9467 0-.5228.4383-.9467.979-.9467.5408 0 .9791.4239.9791.9467z" fill="#ffe5e5"/><path d="m56.4496 37.5072c0 .407-.3413.7369-.7622.7369s-.7621-.3299-.7621-.7369.3412-.7369.7621-.7369.7622.3299.7622.7369z" fill="#ffe5e5"/><path d="m56.4496 41.2078c0 .6898-.5784 1.249-1.2918 1.249s-1.2917-.5592-1.2917-1.249.5783-1.2491 1.2917-1.2491 1.2918.5593 1.2918 1.2491z" fill="#ffe5e5"/><path d="m53.4006 44.024c0 .4213-.3532.7628-.7889.7628s-.7889-.3415-.7889-.7628c0-.4214.3532-.7629.7889-.7629s.7889.3415.7889.7629z" fill="#ffe5e5"/><path clip-rule="evenodd" d="m49.0262 62.6472c-1.2881-2.2833-3.8362-3.8378-6.7692-3.8378-4.2323 0-7.6633 3.2368-7.6633 7.2296 0 1.5199.4972 2.9303 1.3465 4.0943z" fill="#a63d3d" fill-rule="evenodd"/><path clip-rule="evenodd" d="m46.747 62.9275c-.9749-1.7281-2.9036-2.9047-5.1235-2.9047-3.2034 0-5.8003 2.4499-5.8003 5.4719 0 1.1505.3764 2.218 1.0192 3.099z" fill="#c73f3f" fill-rule="evenodd"/><path d="m39.998 61.6031c0 .3421-.2867.6193-.6404.6193s-.6405-.2772-.6405-.6193c0-.342.2868-.6192.6405-.6192s.6404.2772.6404.6192z" fill="#ffe5e5"/><path d="m38.4906 64.8634c0 .342-.2867.6193-.6404.6193s-.6405-.2773-.6405-.6193.2868-.6193.6405-.6193.6404.2773.6404.6193z" fill="#ffe5e5"/><path d="m44.1753 61.9374c0 .5229-.4384.9467-.9791.9467s-.9791-.4238-.9791-.9467c0-.5228.4384-.9467.9791-.9467s.9791.4239.9791.9467z" fill="#ffe5e5"/><path d="m42.4999 31.7059c0 1.5635-1.3011 2.8309-2.9062 2.8309s-2.9063-1.2674-2.9063-2.8309 1.3012-2.8309 2.9063-2.8309 2.9062 1.2674 2.9062 2.8309z" fill="#45b21f"/><path clip-rule="evenodd" d="m44.4999 31.7059c0 2.7172-2.2464 4.8309-4.9062 4.8309s-4.9063-2.1137-4.9063-4.8309 2.2465-4.8309 4.9063-4.8309 4.9062 2.1137 4.9062 4.8309zm-4.9062 2.8309c1.6051 0 2.9062-1.2674 2.9062-2.8309s-1.3011-2.8309-2.9062-2.8309-2.9063 1.2674-2.9063 2.8309 1.3012 2.8309 2.9063 2.8309z" fill="#ffd98e" fill-rule="evenodd"/><path d="m45.9439 50.9062c0 1.8813-1.5684 3.4063-3.5032 3.4063s-3.5033-1.525-3.5033-3.4063c0-1.8812 1.5685-3.4062 3.5033-3.4062s3.5032 1.525 3.5032 3.4062z" fill="#45b21f"/><path clip-rule="evenodd" d="m47.9439 50.9062c0 3.0384-2.5172 5.4063-5.5032 5.4063-2.9861 0-5.5033-2.3679-5.5033-5.4063 0-3.0383 2.5172-5.4062 5.5033-5.4062 2.986 0 5.5032 2.3679 5.5032 5.4062zm-5.5032 3.4063c1.9348 0 3.5032-1.525 3.5032-3.4063 0-1.8812-1.5684-3.4062-3.5032-3.4062s-3.5033 1.525-3.5033 3.4062c0 1.8813 1.5685 3.4063 3.5033 3.4063z" fill="#ffd98e" fill-rule="evenodd"/><path d="m43.82 50.3685c0 .9904-.8257 1.7933-1.8443 1.7933-1.0185 0-1.8443-.8029-1.8443-1.7933 0-.9903.8258-1.7932 1.8443-1.7932 1.0186 0 1.8443.8029 1.8443 1.7932z" fill="#47e310"/><path d="m40.1394 31.0813c0 .6454-.5382 1.1686-1.202 1.1686s-1.2019-.5232-1.2019-1.1686c0-.6455.5381-1.1687 1.2019-1.1687s1.202.5232 1.202 1.1687z" fill="#47e310"/><path d="m67.1887 47.1986c0 1.2426-1.0342 2.25-2.3099 2.25s-2.3099-1.0074-2.3099-2.25 1.0342-2.25 2.3099-2.25 2.3099 1.0074 2.3099 2.25z" fill="#f86512"/><path clip-rule="evenodd" d="m69.1887 47.1986c0 2.3964-1.9795 4.25-4.3099 4.25s-4.3099-1.8536-4.3099-4.25 1.9795-4.25 4.3099-4.25 4.3099 1.8536 4.3099 4.25zm-4.3099 2.25c1.2757 0 2.3099-1.0074 2.3099-2.25s-1.0342-2.25-2.3099-2.25-2.3099 1.0074-2.3099 2.25 1.0342 2.25 2.3099 2.25z" fill="#ffd98e" fill-rule="evenodd"/><path d="m31.3263 63.9548c0 1.0228-.8511 1.8519-1.9011 1.8519-1.0499 0-1.9011-.8291-1.9011-1.8519 0-1.0227.8512-1.8518 1.9011-1.8518 1.05 0 1.9011.8291 1.9011 1.8518z" fill="#f86512"/><path clip-rule="evenodd" d="m33.3263 63.9548c0 2.1765-1.7964 3.8519-3.9011 3.8519s-3.9011-1.6754-3.9011-3.8519 1.7964-3.8518 3.9011-3.8518 3.9011 1.6753 3.9011 3.8518zm-3.9011 1.8519c1.05 0 1.9011-.8291 1.9011-1.8519 0-1.0227-.8511-1.8518-1.9011-1.8518-1.0499 0-1.9011.8291-1.9011 1.8518 0 1.0228.8512 1.8519 1.9011 1.8519z" fill="#ffd98e" fill-rule="evenodd"/></svg>